<?xml version="1.0" encoding="UTF-8" standalone="no"?>
<!-- Created with Inkscape (http://www.inkscape.org/) -->

<svg
   width="1220"
   height="650"
   viewBox="0 0 322.79166 171.97918"
   version="1.1"
   id="svg1"
   xml:space="preserve"
   xmlns:xlink="http://www.w3.org/1999/xlink"
   xmlns="http://www.w3.org/2000/svg"
   xmlns:svg="http://www.w3.org/2000/svg"
   xmlns:rdf="http://www.w3.org/1999/02/22-rdf-syntax-ns#"
   xmlns:cc="http://creativecommons.org/ns#"
   xmlns:dc="http://purl.org/dc/elements/1.1/"><title
     id="title83">Adventure Text Limit Break</title><defs
     id="defs1"><linearGradient
       id="linearGradient24"><stop
         style="stop-color:#ffffff;stop-opacity:1;"
         offset="0.51090342"
         id="stop23" /><stop
         style="stop-color:#acacac;stop-opacity:1;"
         offset="0.53893477"
         id="stop24" /></linearGradient><linearGradient
       id="linearGradient16"><stop
         style="stop-color:#ffffff;stop-opacity:1;"
         offset="0.55451709"
         id="stop21" /><stop
         style="stop-color:#acacac;stop-opacity:1;"
         offset="0.58629042"
         id="stop22" /></linearGradient><linearGradient
       id="linearGradient18"><stop
         style="stop-color:#cf8013;stop-opacity:1;"
         offset="0.47352022"
         id="stop18" /><stop
         style="stop-color:#ffce00;stop-opacity:1;"
         offset="0.52399117"
         id="stop19" /></linearGradient><linearGradient
       id="linearGradient10-1"><stop
         style="stop-color:#0fffff;stop-opacity:1;"
         offset="0.20436016"
         id="stop9" /><stop
         style="stop-color:#3c9bc3;stop-opacity:1;"
         offset="1"
         id="stop10" /></linearGradient><linearGradient
       id="linearGradient3"><stop
         style="stop-color:#00ccff;stop-opacity:1;"
         offset="0"
         id="stop3" /><stop
         style="stop-color:#89e4fb;stop-opacity:1"
         offset="1"
         id="stop4" /></linearGradient><linearGradient
       xlink:href="#linearGradient3"
       id="linearGradient4"
       x1="261.53262"
       y1="62.203842"
       x2="261.53262"
       y2="462.07913"
       gradientUnits="userSpaceOnUse"
       gradientTransform="matrix(0.23921351,0,0,0.23921351,-6.8188062,45.436472)" /><linearGradient
       xlink:href="#linearGradient10-1"
       id="linearGradient12"
       x1="43.088814"
       y1="12.860513"
       x2="43.088814"
       y2="22.328917"
       gradientUnits="userSpaceOnUse" /><linearGradient
       xlink:href="#linearGradient16"
       id="linearGradient15"
       x1="43.088818"
       y1="-10.415541"
       x2="43.088818"
       y2="45.552715"
       gradientUnits="userSpaceOnUse" /><linearGradient
       xlink:href="#linearGradient18"
       id="linearGradient19"
       x1="135.47029"
       y1="-54.012505"
       x2="135.47029"
       y2="194.29137"
       gradientUnits="userSpaceOnUse" /><linearGradient
       xlink:href="#linearGradient24"
       id="linearGradient21"
       x1="135.47029"
       y1="-54.012505"
       x2="135.47029"
       y2="194.29137"
       gradientUnits="userSpaceOnUse"
       spreadMethod="repeat" /><filter
       style="color-interpolation-filters:sRGB"
       id="filter89"
       x="-0.025149915"
       y="-0.41166023"
       width="1.0624049"
       height="2.0210491"><feFlood
         result="flood"
         in="SourceGraphic"
         flood-opacity="0.501961"
         flood-color="rgb(0,0,0)"
         id="feFlood88" /><feGaussianBlur
         result="blur"
         in="SourceGraphic"
         stdDeviation="1.500000"
         id="feGaussianBlur88" /><feOffset
         result="offset"
         in="blur"
         dx="3.000000"
         dy="3.000000"
         id="feOffset88" /><feComposite
         result="comp1"
         operator="in"
         in="flood"
         in2="offset"
         id="feComposite88" /><feComposite
         result="comp2"
         operator="over"
         in="SourceGraphic"
         in2="comp1"
         id="feComposite89" /></filter><filter
       style="color-interpolation-filters:sRGB"
       id="filter126"
       x="-0.04452318"
       y="-0.33449156"
       width="1.098322"
       height="1.6113122"><feFlood
         result="flood"
         in="SourceGraphic"
         flood-opacity="0.262745"
         flood-color="rgb(65,65,65)"
         id="feFlood125" /><feGaussianBlur
         result="blur"
         in="SourceGraphic"
         stdDeviation="1.000000"
         id="feGaussianBlur125" /><feOffset
         result="offset"
         in="blur"
         dx="0.500000"
         dy="-0.500000"
         id="feOffset125" /><feComposite
         result="comp1"
         operator="in"
         in="flood"
         in2="offset"
         id="feComposite125" /><feComposite
         result="comp2"
         operator="over"
         in="SourceGraphic"
         in2="comp1"
         id="feComposite126" /></filter><filter
       style="color-interpolation-filters:sRGB"
       id="filter148"
       x="-0.023495021"
       y="-0.086805046"
       width="1.0537839"
       height="1.1541399"><feFlood
         result="flood"
         in="SourceGraphic"
         flood-opacity="1.000000"
         flood-color="rgb(65,65,65)"
         id="feFlood147" /><feGaussianBlur
         result="blur"
         in="SourceGraphic"
         stdDeviation="0.500000"
         id="feGaussianBlur147" /><feOffset
         result="offset"
         in="blur"
         dx="0.500000"
         dy="-0.500000"
         id="feOffset147" /><feComposite
         result="comp1"
         operator="out"
         in="flood"
         in2="offset"
         id="feComposite147" /><feComposite
         result="comp2"
         operator="atop"
         in="comp1"
         in2="SourceGraphic"
         id="feComposite148" /></filter><filter
       style="color-interpolation-filters:sRGB"
       id="filter83"
       x="-0.10188245"
       y="-0.32003175"
       width="1.2037649"
       height="1.6400599"><feGaussianBlur
         result="result1"
         in="SourceAlpha"
         stdDeviation="2.2"
         id="feGaussianBlur81" /><feSpecularLighting
         result="result0"
         specularExponent="12.20731163"
         specularConstant="1.75999999"
         surfaceScale="2"
         id="feSpecularLighting81"
         lighting-color="#ffffff"><feDistantLight
           azimuth="220"
           elevation="20"
           id="feDistantLight81" /></feSpecularLighting><feComposite
         result="result6"
         operator="arithmetic"
         in2="SourceAlpha"
         id="feComposite81"
         k1="0.23181734"
         k2="1.0890997"
         k3="-10"
         k4="-0.43" /><feMorphology
         radius="5.7840737951807224"
         operator="dilate"
         id="feMorphology81" /><feGaussianBlur
         result="result11"
         stdDeviation="5.7"
         id="feGaussianBlur82" /><feBlend
         result="result7"
         mode="multiply"
         in="result3"
         in2="SourceGraphic"
         id="feBlend82" /><feComposite
         in="result7"
         operator="in"
         in2="SourceAlpha"
         result="result91"
         id="feComposite82" /><feBlend
         result="result9"
         mode="lighten"
         in="result6"
         in2="result91"
         id="feBlend83" /><feComposite
         in="result11"
         in2="result9"
         id="feComposite83" /></filter></defs><g
     id="AdventureTextLimitBreak"
     style="display:inline"
     transform="translate(24.645001,-12.781691)"><path
       id="ActiveMB"
       style="display:inline;fill:url(#linearGradient4);fill-opacity:1;stroke:#000000;stroke-width:4.7469;stroke-dasharray:none;filter:url(#filter83)"
       d="M 17.181212,71.035975 C 9.8655278,71.035974 3.97595,77.829267 3.97595,86.267693 V 113.0356 c 0,8.43843 5.8895778,15.23182 13.205262,15.23182 h 0.330675 l 7.490176,13.03015 c 0,0 0.224405,0.38265 1.337041,1.73584 1.192016,1.44973 11.886888,2.25218 11.886888,2.25218 h 1.626553 l 7.757708,10.1351 c 0,0 0.24921,0.38988 1.222448,0.34564 0.97324,-0.0443 1.437791,-0.33178 1.437791,-0.33178 0,0 0.430594,-0.16166 0.508683,-0.97324 0.09554,-0.993 0,-13.91297 0,-13.91297 0,0 -0.169809,-0.80096 -2.654304,-3.00822 -2.110645,-1.87513 -3.539032,-1.94648 -3.539032,-1.94648 0,0 -2.698532,-0.35384 -3.9372,-0.48655 -1.238667,-0.13272 -1.202795,-1.58317 -1.202795,-1.58317 l -0.09533,-1.27898 c 0,0 -0.07469,-0.59671 0.02113,-1.21018 0.05456,-0.34928 -0.0968,-0.3272 1.011927,-0.93435 0.941793,-0.51573 1.427649,-1.00148 2.331706,-1.83291 l 214.220363,-6e-5 c 7.31567,0 13.20513,-6.79339 13.20513,-15.23182 V 86.267713 c 0,-8.438426 -5.88946,-15.231717 -13.20513,-15.231718 z" /><path
       id="RadioMB"
       style="display:inline;fill:#ffffff;fill-opacity:1;stroke:#000000;stroke-width:1.05833;stroke-linecap:butt;stroke-linejoin:round;stroke-dasharray:none;stroke-opacity:1;paint-order:markers stroke fill;filter:url(#filter148)"
       d="m 269.34531,35.124986 2.99362,4.712372 c 0,0 -0.35053,0.678097 -1.2392,1.531689 -0.88867,0.853592 -1.94149,1.146183 -1.94149,1.146183 0,0 0.79542,1.987851 0.95912,2.701127 0.066,0.287596 -0.003,0.559694 -0.10904,0.782382 -12.93727,-0.01597 -48.45285,-0.01085 -48.45285,-0.01085 l -2.61277,1.190625 -2.76158,-0.992188 1.80247,3.290755 -6.58771,-2.446362 2.43241,3.966683 0.0233,4.756299 -2.43241,3.975468 7.31997,-3.086634 -2.66599,4.092257 2.96985,-1.145666 2.61948,1.215946 h 53.01433 l 2.94659,-1.192692 2.68924,1.192692 -2.45514,-4.139282 6.96908,2.969844 -2.94659,-4.372859 v -3.882451 l 3.10989,-4.513419 -6.72104,2.594673 1.84743,-3.414261 -2.52594,1.099157 c 0,0 -2.44301,-1.000475 -2.88716,-1.121895 l -1.77974,-2.597258 2.56108,-3.881933 c 0,0 -0.0818,-0.105724 -0.65474,-0.28112 -0.57296,-0.175395 -0.79516,-0.362293 -2.10478,-1.180805 -1.30962,-0.818513 -3.37964,-2.958475 -3.37964,-2.958475 z" /><g
       id="Label-Liskomato"
       transform="translate(205.26814,35.062517)"><path
         d="m 20.189278,19.71348 h -1.817513 v -4.199471 c 0,-0.654756 -0.474134,-1.151468 -1.117601,-1.151468 -0.643467,0 -1.117601,0.496712 -1.117601,1.151468 v 5.147738 c 0,0.654757 0.485423,1.151468 1.106312,1.151468 h 2.946403 c 0.643468,0 1.117601,-0.428978 1.117601,-1.049867 0,-0.62089 -0.474133,-1.049868 -1.117601,-1.049868 z m 2.720631,-4.041427 c 0.688623,0 1.219202,-0.530578 1.219202,-1.219201 0,-0.688623 -0.530579,-1.219201 -1.219202,-1.219201 -0.688623,0 -1.219201,0.530578 -1.219201,1.219201 0,0.688623 0.530578,1.219201 1.219201,1.219201 z m -1.095023,5.012272 c 0,0.654756 0.462845,1.12889 1.095023,1.12889 0.632179,0 1.095024,-0.474134 1.095024,-1.12889 V 17.2525 c 0,-0.654757 -0.462845,-1.128891 -1.095024,-1.128891 -0.632178,0 -1.095023,0.474134 -1.095023,1.128891 z m 5.136458,-3.002847 c 0,-0.07902 0.04516,-0.2032 0.372534,-0.2032 0.259645,0 0.541867,0.05644 1.072445,0.361244 0.1016,0.05645 0.203201,0.1016 0.372534,0.1016 0.417689,0 0.767645,-0.349955 0.767645,-0.767645 0,-0.3048 -0.180622,-0.530578 -0.372533,-0.654756 -0.451556,-0.293511 -1.162757,-0.485423 -1.907825,-0.485423 -0.993423,0 -2.348091,0.406401 -2.348091,1.828802 0,2.020713 2.754492,1.761069 2.754492,2.280358 0,0.1016 -0.1016,0.270934 -0.485423,0.270934 -0.428978,0 -0.982134,-0.214489 -1.456268,-0.474134 -0.135467,-0.07902 -0.270934,-0.1016 -0.4064,-0.1016 -0.395112,0 -0.778935,0.372533 -0.778935,0.812801 0,0.259644 0.135467,0.508 0.338667,0.654756 0.270934,0.2032 1.196624,0.598311 2.325514,0.598311 1.546579,0 2.551291,-0.733778 2.551291,-1.919113 0,-1.986846 -2.799647,-1.659468 -2.799647,-2.302935 z m 4.391374,-3.883382 c -0.632178,0 -1.095023,0.474134 -1.095023,1.12889 v 5.757339 c 0,0.654756 0.462845,1.12889 1.095023,1.12889 0.632179,0 1.095024,-0.474134 1.095024,-1.12889 v -0.891823 h 0.293511 c 0.440267,0 0.519289,0.214489 0.688623,0.643467 l 0.225778,0.564445 c 0.169334,0.428979 0.462845,0.812801 1.072446,0.812801 0.903112,0 1.241779,-0.767645 1.016001,-1.43369 l -0.21449,-0.632179 c -0.191911,-0.575733 -0.451556,-0.824089 -0.891823,-1.038578 0.361245,-0.169334 0.677334,-0.474134 0.778934,-0.801512 l 0.112889,-0.372534 c 0.180623,-0.587023 -0.1016,-1.411113 -1.061156,-1.411113 -0.417689,0 -0.869246,0.191912 -1.038579,0.767646 l -0.124178,0.417689 c -0.112889,0.372534 -0.259645,0.564445 -0.564445,0.564445 h -0.293511 v -2.946403 c 0,-0.654756 -0.462845,-1.12889 -1.095024,-1.12889 z m 7.879658,8.10543 c 1.794935,0 3.217337,-1.207912 3.217337,-2.935114 0,-1.727201 -1.422402,-2.935114 -3.217337,-2.935114 -1.794935,0 -3.217336,1.207913 -3.217336,2.935114 0,1.727202 1.422401,2.935114 3.217336,2.935114 z m -1.004712,-2.935114 c 0,-0.587022 0.349956,-1.083734 1.004712,-1.083734 0.654756,0 1.004712,0.496712 1.004712,1.083734 0,0.587023 -0.349956,1.083735 -1.004712,1.083735 -0.654756,0 -1.004712,-0.496712 -1.004712,-1.083735 z m 11.198581,-2.935114 c -0.677334,0 -1.343379,0.248356 -1.682046,0.609601 -0.282223,-0.395112 -0.733779,-0.609601 -1.253068,-0.609601 -0.654756,0 -1.286935,0.349956 -1.512713,0.666045 h -0.06773 v -0.01129 C 44.787799,16.371964 44.47171,16.11232 44.008865,16.11232 c -0.666045,0 -1.095024,0.519289 -1.095024,1.174045 v 3.397959 c 0,0.654756 0.462845,1.12889 1.095024,1.12889 0.632178,0 1.095023,-0.474134 1.095023,-1.12889 v -2.325513 c 0,-0.270934 0.191911,-0.51929 0.530578,-0.51929 0.327379,0 0.51929,0.237067 0.51929,0.51929 v 2.325513 c 0,0.654756 0.462845,1.12889 1.095023,1.12889 0.632179,0 1.095023,-0.474134 1.095023,-1.12889 v -2.325513 c 0,-0.282223 0.191912,-0.51929 0.530579,-0.51929 0.327378,0 0.519289,0.237067 0.519289,0.51929 v 2.325513 c 0,0.654756 0.462845,1.12889 1.095024,1.12889 0.632178,0 1.095023,-0.474134 1.095023,-1.12889 v -2.223913 c 0,-1.422402 -0.790223,-2.427114 -2.167469,-2.427114 z m 5.192889,5.870228 c 0.903112,0 1.546579,-0.474133 1.715913,-0.880534 h 0.1016 v 0.01129 c 0,0.462845 0.395112,0.778934 0.92569,0.778934 0.688623,0 1.095023,-0.474134 1.095023,-1.12889 V 18.58459 c 0,-1.580446 -1.354668,-2.551292 -3.070581,-2.551292 -1.761068,0 -3.318936,1.02729 -3.318936,3.014137 0,1.715913 1.162756,2.856091 2.551291,2.856091 z m -0.338667,-2.901247 c 0,-0.666045 0.361245,-1.162757 1.038579,-1.162757 0.530578,0 0.970845,0.293512 0.970845,0.959557 v 0.372534 c 0,0.666045 -0.530578,0.948267 -1.004712,0.948267 -0.6096,0 -1.004712,-0.417689 -1.004712,-1.117601 z m 5.429964,-3.635026 v 0.756356 h -0.01129 c -0.62089,0 -1.016001,0.406401 -1.016001,0.982135 0,0.575734 0.395111,0.982134 1.016001,0.982134 h 0.01129 v 1.456268 c 0,1.535291 0.722489,2.269069 2.269069,2.269069 h 0.361244 c 0.62089,0 1.061157,-0.338667 1.061157,-0.982134 0,-0.643467 -0.440267,-0.982134 -1.061157,-0.982134 H 62.2743 c -0.259645,0 -0.383823,-0.158045 -0.383823,-0.41769 v -1.343379 h 0.440267 c 0.62089,0 1.061157,-0.4064 1.061157,-0.982134 0,-0.575734 -0.440267,-0.982135 -1.061157,-0.982135 h -0.440267 v -0.756356 c 0,-0.654756 -0.451556,-1.140179 -1.095023,-1.140179 -0.643467,0 -1.095023,0.485423 -1.095023,1.140179 z m 7.123302,6.536273 c 1.794935,0 3.217336,-1.207912 3.217336,-2.935114 0,-1.727201 -1.422401,-2.935114 -3.217336,-2.935114 -1.794936,0 -3.217337,1.207913 -3.217337,2.935114 0,1.727202 1.422401,2.935114 3.217337,2.935114 z m -1.004712,-2.935114 c 0,-0.587022 0.349955,-1.083734 1.004712,-1.083734 0.654756,0 1.004712,0.496712 1.004712,1.083734 0,0.587023 -0.349956,1.083735 -1.004712,1.083735 -0.654757,0 -1.004712,-0.496712 -1.004712,-1.083735 z"
         id="path5"
         style="font-weight:900;font-size:11.2889px;font-family:'FONTSPRING DEMO - Torus Pro Heavy';-inkscape-font-specification:'FONTSPRING DEMO - Torus Pro Heavy,  Heavy';display:inline;stroke-dasharray:none;filter:url(#filter126)"
         aria-label="Liskomato" /><use
         x="0"
         y="0"
         xlink:href="#path5"
         id="use13"
         style="display:none;fill:none;fill-opacity:1;stroke:url(#linearGradient15);stroke-width:2.06375;stroke-dasharray:none;stroke-opacity:1" /><use
         x="0"
         y="0"
         xlink:href="#path5"
         id="use11"
         style="display:inline;fill:url(#linearGradient12);fill-opacity:1;stroke:#1f5b5e;stroke-width:0.264583;stroke-dasharray:none;stroke-opacity:1" /></g><g
       id="Label-AdventureTextLimitBreak"
       transform="translate(1.5875,27.516667)"><path
         d="m 23.799556,74.841255 -4.207943,-9.06782 c -0.454379,-0.968025 -1.126069,-1.402648 -1.936049,-1.402648 -0.80998,0 -1.48167,0.434623 -1.936049,1.402648 l -4.207943,9.06782 c -0.572912,1.224847 0.158045,2.726273 1.79776,2.726273 0.612424,0 1.402648,-0.217312 1.837271,-1.323625 l 0.217311,-0.533402 h 4.5833 l 0.217311,0.533402 c 0.434623,1.106313 1.224847,1.323625 1.837271,1.323625 1.639715,0 2.370672,-1.501426 1.79776,-2.726273 z m -7.250306,-2.113849 1.106314,-2.765784 1.106314,2.765784 z m 15.073515,-0.49389 v 0.651935 c 0,1.086558 -0.770468,1.600203 -1.698981,1.600203 -1.185336,0 -1.817516,-0.869246 -1.817516,-1.955804 0,-1.244603 0.691446,-1.955805 1.738493,-1.955805 0.849491,0 1.778004,0.49389 1.778004,1.659471 z m -7.388594,0.217311 c 0,3.437475 2.627495,5.274746 5.768635,5.274746 2.884318,0 5.413034,-1.936049 5.413034,-5.195723 v -7.013238 c 0,-1.145825 -0.809979,-1.97556 -1.916293,-1.97556 -1.106313,0 -1.916293,0.829735 -1.916293,1.97556 v 2.923829 H 31.46472 c -0.750712,-0.553157 -1.461914,-0.98778 -2.706517,-0.98778 -2.489205,0 -4.524032,1.97556 -4.524032,4.998166 z m 20.170464,-4.840122 c -0.790224,0 -1.521181,0.355601 -1.817515,1.145825 l -1.363137,3.575764 -1.363136,-3.575764 c -0.296334,-0.790224 -1.027291,-1.145825 -1.817515,-1.145825 -1.738493,0 -2.212628,1.679226 -1.659471,2.765784 l 3.062118,6.084725 c 0.355601,0.711202 1.007536,1.165581 1.778004,1.165581 0.770469,0 1.422403,-0.454379 1.778004,-1.165581 l 3.062118,-6.084725 c 0.553157,-1.086558 0.07902,-2.765784 -1.65947,-2.765784 z m 9.26538,3.891854 h -3.180651 c 0.237067,-0.80998 0.770468,-1.422404 1.600203,-1.422404 1.126069,0 1.501426,0.908758 1.580448,1.422404 z m -7.072505,1.066802 c 0,3.022607 2.331161,5.156212 5.709369,5.156212 1.442158,0 2.706517,-0.355601 3.536252,-0.80998 0.49389,-0.276578 0.790224,-0.730957 0.790224,-1.244603 0,-0.49389 -0.375356,-1.382892 -1.343381,-1.382892 -0.197556,0 -0.414867,0.03951 -0.651935,0.118534 -0.572912,0.1778 -1.224847,0.375356 -2.034826,0.375356 -1.066803,0 -1.758249,-0.355601 -2.054583,-1.106313 h 4.899389 c 1.30387,0 1.817515,-1.066803 1.817515,-1.916294 0,-2.667006 -2.46945,-4.30672 -5.136456,-4.30672 -2.844806,0 -5.531568,2.094093 -5.531568,5.1167 z m 18.135651,-5.1167 c -1.224847,0 -2.46945,0.474134 -3.042363,1.16558 h -0.118533 v -0.01976 c -0.296334,-0.750712 -0.968025,-0.98778 -1.540937,-0.98778 -1.126069,0 -1.936049,0.849491 -1.936049,1.995316 v 5.966191 c 0,1.145825 0.790224,1.995316 1.916293,1.995316 1.12607,0 1.916294,-0.849491 1.916294,-1.995316 v -3.773319 c 0,-0.730958 0.533401,-1.185336 1.363136,-1.185336 0.80998,0 1.264358,0.454378 1.264358,1.185336 v 3.773319 c 0,1.145825 0.790224,1.995316 1.916294,1.995316 1.126069,0 1.916293,-0.849491 1.916293,-1.995316 v -3.911609 c 0,-2.923828 -1.639715,-4.207942 -3.654786,-4.207942 z m 5.847662,-1.165581 v 1.323625 h -0.01975 c -1.086558,0 -1.778004,0.711202 -1.778004,1.718738 0,1.007535 0.691446,1.718737 1.778004,1.718737 h 0.01975 v 2.548472 c 0,2.686762 1.264359,3.970876 3.970876,3.970876 h 0.632179 c 1.086558,0 1.857027,-0.592668 1.857027,-1.718737 0,-1.12607 -0.770469,-1.718738 -1.857027,-1.718738 H 75.0851 c -0.454379,0 -0.67169,-0.276578 -0.67169,-0.730957 V 71.04818 h 0.770468 c 1.086558,0 1.857027,-0.711202 1.857027,-1.718737 0,-1.007536 -0.770469,-1.718738 -1.857027,-1.718738 H 74.41341 V 66.28708 c 0,-1.145825 -0.790224,-1.995315 -1.916293,-1.995315 -1.12607,0 -1.916294,0.84949 -1.916294,1.995315 z m 15.764976,1.323625 c -1.106314,0 -1.916293,0.829736 -1.916293,1.97556 v 3.77332 c 0,0.67169 -0.533401,1.16558 -1.363137,1.16558 -0.829735,0 -1.264358,-0.454378 -1.264358,-1.205091 v -3.733809 c 0,-1.145824 -0.80998,-1.97556 -1.916293,-1.97556 -1.106314,0 -1.916293,0.829736 -1.916293,1.97556 v 3.872098 c 0,2.686762 1.422403,4.227698 3.832586,4.227698 1.461914,0 2.548472,-0.612423 2.904073,-1.224847 h 0.118534 v 0.01976 c 0.1778,0.513645 0.691446,1.086558 1.600203,1.086558 1.027292,0 1.837271,-0.750713 1.837271,-1.896538 v -6.084725 c 0,-1.145824 -0.809979,-1.97556 -1.916293,-1.97556 z m 9.818528,-0.1778 c -0.118533,-0.03951 -0.3556,-0.05927 -0.553156,-0.05927 -1.086558,0 -1.936049,0.513646 -2.647251,1.382892 h -0.118533 v -0.01976 c -0.31609,-0.790224 -0.889002,-1.12607 -1.61996,-1.12607 -1.106313,0 -1.936048,0.849491 -1.936048,1.995316 v 5.985947 c 0,1.145825 0.809979,1.97556 1.916293,1.97556 1.106313,0 1.916293,-0.829735 1.916293,-1.97556 v -3.121385 c 0,-0.829735 0.296334,-1.363136 1.264358,-1.363136 0.335846,0 0.63218,0.09878 0.790224,0.138289 0.256823,0.05927 0.395112,0.05927 0.513646,0.05927 1.066802,0 1.955804,-0.889002 1.955804,-1.97556 0,-0.889002 -0.572912,-1.639715 -1.48167,-1.896538 z m 8.593673,4.069654 h -3.18065 c 0.23707,-0.80998 0.77047,-1.422404 1.6002,-1.422404 1.12607,0 1.50143,0.908758 1.58045,1.422404 z m -7.072504,1.066802 c 0,3.022607 2.331164,5.156212 5.709364,5.156212 1.44216,0 2.70652,-0.355601 3.53626,-0.80998 0.49389,-0.276578 0.79022,-0.730957 0.79022,-1.244603 0,-0.49389 -0.37536,-1.382892 -1.34338,-1.382892 -0.19756,0 -0.41487,0.03951 -0.65193,0.118534 -0.57292,0.1778 -1.22485,0.375356 -2.03483,0.375356 -1.0668,0 -1.75825,-0.355601 -2.05458,-1.106313 h 4.89939 c 1.30386,0 1.81751,-1.066803 1.81751,-1.916294 0,-2.667006 -2.46945,-4.30672 -5.13646,-4.30672 -2.8448,0 -5.531564,2.094093 -5.531564,5.1167 z m 23.766014,-8.040529 h -7.11201 c -1.12607,0 -1.95581,0.809979 -1.95581,1.837271 0,1.027291 0.82974,1.83727 1.95581,1.83727 h 1.6002 v 7.349084 c 0,1.145824 0.82974,2.015071 1.95581,2.015071 1.12606,0 1.9558,-0.869247 1.9558,-2.015071 v -7.349084 h 1.6002 c 1.12607,0 1.95581,-0.809979 1.95581,-1.83727 0,-1.027292 -0.82974,-1.837271 -1.95581,-1.837271 z m 7.80347,6.973727 h -3.18065 c 0.23707,-0.80998 0.77047,-1.422404 1.6002,-1.422404 1.12607,0 1.50143,0.908758 1.58045,1.422404 z m -7.0725,1.066802 c 0,3.022607 2.33116,5.156212 5.70936,5.156212 1.44216,0 2.70652,-0.355601 3.53626,-0.80998 0.49389,-0.276578 0.79022,-0.730957 0.79022,-1.244603 0,-0.49389 -0.37536,-1.382892 -1.34338,-1.382892 -0.19756,0 -0.41487,0.03951 -0.65194,0.118534 -0.57291,0.1778 -1.22484,0.375356 -2.03482,0.375356 -1.0668,0 -1.75825,-0.355601 -2.05458,-1.106313 h 4.89938 c 1.30387,0 1.81752,-1.066803 1.81752,-1.916294 0,-2.667006 -2.46945,-4.30672 -5.13646,-4.30672 -2.8448,0 -5.53156,2.094093 -5.53156,5.1167 z m 20.05194,1.718737 -2.09409,-1.797759 2.01507,-1.738493 c 0.3556,-0.31609 0.55316,-0.790224 0.55316,-1.30387 0,-1.007535 -0.82974,-1.837271 -1.83727,-1.837271 -0.51365,0 -0.96803,0.197556 -1.30387,0.553157 l -1.42241,1.501426 -1.4224,-1.501426 c -0.31609,-0.335845 -0.79022,-0.553157 -1.30387,-0.553157 -1.00754,0 -1.83727,0.829736 -1.83727,1.837271 0,0.49389 0.21731,1.027291 0.59267,1.343381 l 1.97556,1.698982 -2.17312,1.876782 c -0.33584,0.296334 -0.57291,0.790224 -0.57291,1.34338 0,1.007536 0.84949,1.857027 1.87678,1.857027 0.55316,0 1.02729,-0.256823 1.36314,-0.612424 l 1.50142,-1.600203 1.5607,1.65947 c 0.25682,0.276578 0.75071,0.553157 1.32362,0.553157 1.00754,0 1.85703,-0.849491 1.85703,-1.876782 0,-0.632179 -0.33585,-1.126069 -0.65194,-1.402648 z m 2.92382,-8.001018 v 1.323625 h -0.0198 c -1.08655,0 -1.778,0.711202 -1.778,1.718738 0,1.007535 0.69145,1.718737 1.778,1.718737 h 0.0198 v 2.548472 c 0,2.686762 1.26436,3.970876 3.97087,3.970876 h 0.63218 c 1.08656,0 1.85703,-0.592668 1.85703,-1.718737 0,-1.12607 -0.77047,-1.718738 -1.85703,-1.718738 h -0.0988 c -0.45438,0 -0.67169,-0.276578 -0.67169,-0.730957 V 71.04818 h 0.77046 c 1.08656,0 1.85703,-0.711202 1.85703,-1.718737 0,-1.007536 -0.77047,-1.718738 -1.85703,-1.718738 H 148.9908 V 66.28708 c 0,-1.145825 -0.79023,-1.995315 -1.9163,-1.995315 -1.12607,0 -1.91629,0.84949 -1.91629,1.995315 z m 18.98514,7.605906 h -3.18065 v -7.349083 c 0,-1.145825 -0.82973,-2.015071 -1.9558,-2.015071 -1.12607,0 -1.95581,0.869246 -1.95581,2.015071 v 9.008554 c 0,1.145824 0.84949,2.015071 1.93605,2.015071 h 5.15621 c 1.12607,0 1.95581,-0.750713 1.95581,-1.837271 0,-1.086558 -0.82974,-1.837271 -1.95581,-1.837271 z m 4.76111,-7.072505 c 1.20509,0 2.1336,-0.928513 2.1336,-2.133604 0,-1.205092 -0.92851,-2.133605 -2.1336,-2.133605 -1.20509,0 -2.13361,0.928513 -2.13361,2.133605 0,1.205091 0.92852,2.133604 2.13361,2.133604 z m -1.9163,8.771487 c 0,1.145825 0.80998,1.97556 1.9163,1.97556 1.10631,0 1.91629,-0.829735 1.91629,-1.97556 v -6.005703 c 0,-1.145824 -0.80998,-1.97556 -1.91629,-1.97556 -1.10632,0 -1.9163,0.829736 -1.9163,1.97556 z m 16.29839,-8.139307 c -1.18534,0 -2.35092,0.434623 -2.94359,1.066802 -0.49389,-0.691446 -1.28411,-1.066802 -2.19287,-1.066802 -1.14582,0 -2.25214,0.612423 -2.64725,1.16558 h -0.11853 v -0.01976 c -0.19756,-0.553156 -0.75072,-1.007535 -1.56069,-1.007535 -1.16559,0 -1.9163,0.908757 -1.9163,2.054582 v 5.946436 c 0,1.145825 0.80998,1.97556 1.9163,1.97556 1.10631,0 1.91629,-0.829735 1.91629,-1.97556 V 71.52231 c 0,-0.474134 0.33584,-0.908757 0.92851,-0.908757 0.57291,0 0.90876,0.414867 0.90876,0.908757 v 4.069654 c 0,1.145825 0.80998,1.97556 1.91629,1.97556 1.10632,0 1.9163,-0.829735 1.9163,-1.97556 V 71.52231 c 0,-0.49389 0.33584,-0.908757 0.92851,-0.908757 0.57291,0 0.90876,0.414867 0.90876,0.908757 v 4.069654 c 0,1.145825 0.80998,1.97556 1.91629,1.97556 1.10631,0 1.91629,-0.829735 1.91629,-1.97556 v -3.891853 c 0,-2.489206 -1.38289,-4.247454 -3.79307,-4.247454 z m 6.79592,-0.63218 c 1.20509,0 2.1336,-0.928513 2.1336,-2.133604 0,-1.205092 -0.92851,-2.133605 -2.1336,-2.133605 -1.20509,0 -2.13361,0.928513 -2.13361,2.133605 0,1.205091 0.92852,2.133604 2.13361,2.133604 z m -1.9163,8.771487 c 0,1.145825 0.80998,1.97556 1.9163,1.97556 1.10631,0 1.91629,-0.829735 1.91629,-1.97556 v -6.005703 c 0,-1.145824 -0.80998,-1.97556 -1.91629,-1.97556 -1.10632,0 -1.9163,0.829736 -1.9163,1.97556 z m 6.44036,-9.304888 v 1.323625 h -0.0198 c -1.08656,0 -1.778,0.711202 -1.778,1.718738 0,1.007535 0.69144,1.718737 1.778,1.718737 h 0.0198 v 2.548472 c 0,2.686762 1.26436,3.970876 3.97087,3.970876 h 0.63218 c 1.08656,0 1.85703,-0.592668 1.85703,-1.718737 0,-1.12607 -0.77047,-1.718738 -1.85703,-1.718738 h -0.0988 c -0.45437,0 -0.67169,-0.276578 -0.67169,-0.730957 V 71.04818 h 0.77047 c 1.08656,0 1.85703,-0.711202 1.85703,-1.718737 0,-1.007536 -0.77047,-1.718738 -1.85703,-1.718738 h -0.77047 V 66.28708 c 0,-1.145825 -0.79022,-1.995315 -1.91629,-1.995315 -1.12607,0 -1.91629,0.84949 -1.91629,1.995315 z m 16.9503,3.358452 h -1.14582 v -1.837271 h 1.14582 c 0.59267,0 0.84949,0.375357 0.84949,0.908758 0,0.533401 -0.25682,0.928513 -0.84949,0.928513 z m -5.05743,5.906925 c 0,1.145824 0.82973,2.015071 1.9558,2.015071 h 4.0499 c 3.14114,0 4.50428,-2.311405 4.50428,-4.247454 0,-1.718737 -1.0273,-2.528717 -1.83727,-3.022607 0.47413,-0.414868 1.02729,-1.047047 1.02729,-2.390428 0,-2.252138 -1.40265,-3.378207 -4.14868,-3.378207 h -3.59552 c -1.12607,0 -1.9558,0.869246 -1.9558,2.015071 z m 3.91161,-1.264359 v -1.955804 h 1.63971 c 0.73096,0 1.00754,0.355601 1.00754,0.98778 0,0.632179 -0.27658,0.968024 -1.00754,0.968024 z m 14.46109,-6.855193 c -0.11853,-0.03951 -0.3556,-0.05927 -0.55316,-0.05927 -1.08656,0 -1.93605,0.513646 -2.64725,1.382892 h -0.11853 v -0.01976 c -0.31609,-0.790224 -0.889,-1.12607 -1.61996,-1.12607 -1.10631,0 -1.93605,0.849491 -1.93605,1.995316 v 5.985947 c 0,1.145825 0.80998,1.97556 1.91629,1.97556 1.10632,0 1.9163,-0.829735 1.9163,-1.97556 v -3.121385 c 0,-0.829735 0.29633,-1.363136 1.26436,-1.363136 0.33584,0 0.63217,0.09878 0.79022,0.138289 0.25682,0.05927 0.39511,0.05927 0.51364,0.05927 1.06681,0 1.95581,-0.889002 1.95581,-1.97556 0,-0.889002 -0.57291,-1.639715 -1.48167,-1.896538 z m 8.59367,4.069654 h -3.18065 c 0.23707,-0.80998 0.77047,-1.422404 1.6002,-1.422404 1.12607,0 1.50143,0.908758 1.58045,1.422404 z m -7.0725,1.066802 c 0,3.022607 2.33116,5.156212 5.70937,5.156212 1.44216,0 2.70651,-0.355601 3.53625,-0.80998 0.49389,-0.276578 0.79022,-0.730957 0.79022,-1.244603 0,-0.49389 -0.37535,-1.382892 -1.34338,-1.382892 -0.19755,0 -0.41487,0.03951 -0.65193,0.118534 -0.57292,0.1778 -1.22485,0.375356 -2.03483,0.375356 -1.0668,0 -1.75825,-0.355601 -2.05458,-1.106313 h 4.89939 c 1.30387,0 1.81751,-1.066803 1.81751,-1.916294 0,-2.667006 -2.46945,-4.30672 -5.13645,-4.30672 -2.84481,0 -5.53157,2.094093 -5.53157,5.1167 z m 15.76498,5.156212 c 1.58045,0 2.70652,-0.829736 3.00285,-1.540937 h 0.1778 v 0.01976 c 0,0.80998 0.69145,1.363137 1.61996,1.363137 1.20509,0 1.91629,-0.829735 1.91629,-1.97556 v -3.674542 c 0,-2.765784 -2.37067,-4.464765 -5.37352,-4.464765 -3.08187,0 -5.80815,1.797759 -5.80815,5.274745 0,3.002851 2.03483,4.998167 4.46477,4.998167 z m -0.59267,-5.07719 c 0,-1.16558 0.63218,-2.034826 1.81752,-2.034826 0.92851,0 1.69898,0.513645 1.69898,1.679226 v 0.651934 c 0,1.165581 -0.92851,1.659471 -1.75825,1.659471 -1.0668,0 -1.75825,-0.730957 -1.75825,-1.955805 z m 10.25315,-9.107331 c -1.10631,0 -1.91629,0.829735 -1.91629,1.97556 v 10.075356 c 0,1.145825 0.80998,1.97556 1.91629,1.97556 1.10632,0 1.9163,-0.829735 1.9163,-1.97556 v -1.560693 h 0.51364 c 0.77047,0 0.90876,0.375357 1.20509,1.12607 l 0.39511,0.98778 c 0.29634,0.750712 0.80998,1.422403 1.87679,1.422403 1.58044,0 2.17311,-1.343381 1.778,-2.508961 l -0.37536,-1.106314 c -0.33584,-1.007536 -0.79022,-1.442159 -1.56069,-1.817515 0.63218,-0.296334 1.18534,-0.829735 1.36314,-1.402648 l 0.19755,-0.651935 c 0.31609,-1.027291 -0.1778,-2.46945 -1.85702,-2.46945 -0.73096,0 -1.52118,0.335846 -1.81752,1.343381 l -0.21731,0.730957 c -0.19755,0.651935 -0.45438,0.98778 -0.98778,0.98778 h -0.51364 v -5.156211 c 0,-1.145825 -0.80998,-1.97556 -1.9163,-1.97556 z"
         id="text16"
         style="font-weight:900;font-size:19.7556px;font-family:'FONTSPRING DEMO - Torus Pro Heavy';-inkscape-font-specification:'FONTSPRING DEMO - Torus Pro Heavy,  Heavy';display:inline"
         aria-label="Adventure Text Limit Break" /><use
         x="0"
         y="0"
         xlink:href="#text16"
         id="use19"
         style="display:inline;fill:none;fill-opacity:0;stroke:url(#linearGradient21);stroke-width:5.29167;stroke-linecap:butt;stroke-linejoin:miter;stroke-dasharray:none;paint-order:normal;filter:url(#filter89)" /><use
         x="0"
         y="0"
         xlink:href="#text16"
         id="use18"
         style="fill:url(#linearGradient19);fill-opacity:1;stroke:#604d00;stroke-width:0.79375;stroke-dasharray:none;stroke-opacity:1" /></g></g><metadata
     id="metadata83"><rdf:RDF><cc:Work
         rdf:about=""><dc:title>Adventure Text Limit Break</dc:title><dc:creator><cc:Agent><dc:title>0KepOnline</dc:title></cc:Agent></dc:creator></cc:Work></rdf:RDF></metadata></svg>
