<?xml version="1.0" encoding="UTF-8" standalone="no"?>
<!-- Created with Inkscape (http://www.inkscape.org/) -->

<svg
   width="650"
   height="650"
   viewBox="0 0 171.97916 171.97918"
   version="1.1"
   id="svg1"
   xml:space="preserve"
   xmlns:xlink="http://www.w3.org/1999/xlink"
   xmlns="http://www.w3.org/2000/svg"
   xmlns:svg="http://www.w3.org/2000/svg"
   xmlns:rdf="http://www.w3.org/1999/02/22-rdf-syntax-ns#"
   xmlns:cc="http://creativecommons.org/ns#"
   xmlns:dc="http://purl.org/dc/elements/1.1/"><title
     id="title83">Adventure Text Limit Break (Icon)</title><defs
     id="defs1"><linearGradient
       id="linearGradient37"><stop
         style="stop-color:#ffffff;stop-opacity:1;"
         offset="0.51090342"
         id="stop36" /><stop
         style="stop-color:#acacac;stop-opacity:1;"
         offset="0.67902327"
         id="stop37" /></linearGradient><linearGradient
       id="linearGradient35"><stop
         style="stop-color:#ffffff;stop-opacity:1;"
         offset="0.51090342"
         id="stop34" /><stop
         style="stop-color:#acacac;stop-opacity:1;"
         offset="0.60988575"
         id="stop35" /></linearGradient><linearGradient
       id="linearGradient26"><stop
         style="stop-color:#ffffff;stop-opacity:1;"
         offset="0.51214468"
         id="stop25" /><stop
         style="stop-color:#acacac;stop-opacity:1;"
         offset="0.5937683"
         id="stop26" /></linearGradient><linearGradient
       id="linearGradient16"><stop
         style="stop-color:#ffffff;stop-opacity:1;"
         offset="0.55451709"
         id="stop21" /><stop
         style="stop-color:#acacac;stop-opacity:1;"
         offset="0.58629042"
         id="stop22" /></linearGradient><linearGradient
       id="linearGradient18"><stop
         style="stop-color:#cf8013;stop-opacity:1;"
         offset="0.47352022"
         id="stop18" /><stop
         style="stop-color:#ffce00;stop-opacity:1;"
         offset="0.52399117"
         id="stop19" /></linearGradient><linearGradient
       id="linearGradient10-1"><stop
         style="stop-color:#0fffff;stop-opacity:1;"
         offset="0.20436016"
         id="stop9" /><stop
         style="stop-color:#3c9bc3;stop-opacity:1;"
         offset="1"
         id="stop10" /></linearGradient><linearGradient
       id="linearGradient3"><stop
         style="stop-color:#00ccff;stop-opacity:1;"
         offset="0"
         id="stop3" /><stop
         style="stop-color:#89e4fb;stop-opacity:1"
         offset="1"
         id="stop4" /></linearGradient><linearGradient
       xlink:href="#linearGradient3"
       id="linearGradient4"
       x1="261.53262"
       y1="62.203842"
       x2="261.53262"
       y2="462.07913"
       gradientUnits="userSpaceOnUse"
       gradientTransform="matrix(0.23921351,0,0,0.23921351,-6.8188062,45.436472)" /><linearGradient
       xlink:href="#linearGradient10-1"
       id="linearGradient12"
       x1="43.088814"
       y1="12.860513"
       x2="43.088814"
       y2="22.328917"
       gradientUnits="userSpaceOnUse" /><linearGradient
       xlink:href="#linearGradient16"
       id="linearGradient15"
       x1="43.088818"
       y1="-10.415541"
       x2="43.088818"
       y2="45.552715"
       gradientUnits="userSpaceOnUse" /><filter
       style="color-interpolation-filters:sRGB"
       id="filter126"
       x="-0.04452318"
       y="-0.33449156"
       width="1.098322"
       height="1.6113122"><feFlood
         result="flood"
         in="SourceGraphic"
         flood-opacity="0.262745"
         flood-color="rgb(65,65,65)"
         id="feFlood125" /><feGaussianBlur
         result="blur"
         in="SourceGraphic"
         stdDeviation="1.000000"
         id="feGaussianBlur125" /><feOffset
         result="offset"
         in="blur"
         dx="0.500000"
         dy="-0.500000"
         id="feOffset125" /><feComposite
         result="comp1"
         operator="in"
         in="flood"
         in2="offset"
         id="feComposite125" /><feComposite
         result="comp2"
         operator="over"
         in="SourceGraphic"
         in2="comp1"
         id="feComposite126" /></filter><filter
       style="color-interpolation-filters:sRGB"
       id="filter148"
       x="-0.023495022"
       y="-0.086804344"
       width="1.0537839"
       height="1.1541392"><feFlood
         result="flood"
         in="SourceGraphic"
         flood-opacity="1.000000"
         flood-color="rgb(65,65,65)"
         id="feFlood147" /><feGaussianBlur
         result="blur"
         in="SourceGraphic"
         stdDeviation="0.500000"
         id="feGaussianBlur147" /><feOffset
         result="offset"
         in="blur"
         dx="0.500000"
         dy="-0.500000"
         id="feOffset147" /><feComposite
         result="comp1"
         operator="out"
         in="flood"
         in2="offset"
         id="feComposite147" /><feComposite
         result="comp2"
         operator="atop"
         in="comp1"
         in2="SourceGraphic"
         id="feComposite148" /></filter><filter
       style="color-interpolation-filters:sRGB"
       id="filter83"
       x="-0.23616774"
       y="-0.23601727"
       width="1.4723355"
       height="1.4720319"><feGaussianBlur
         result="result1"
         in="SourceAlpha"
         stdDeviation="2.2"
         id="feGaussianBlur81" /><feSpecularLighting
         result="result0"
         specularExponent="12.20731163"
         specularConstant="1.75999999"
         surfaceScale="2"
         id="feSpecularLighting81"
         lighting-color="#ffffff"><feDistantLight
           azimuth="220"
           elevation="20"
           id="feDistantLight81" /></feSpecularLighting><feComposite
         result="result6"
         operator="arithmetic"
         in2="SourceAlpha"
         id="feComposite81"
         k1="0.23181734"
         k2="1.0890997"
         k3="-10"
         k4="-0.43" /><feMorphology
         radius="5.7840737951807224"
         operator="dilate"
         id="feMorphology81" /><feGaussianBlur
         result="result11"
         stdDeviation="5.7"
         id="feGaussianBlur82" /><feBlend
         result="result7"
         mode="multiply"
         in="result3"
         in2="SourceGraphic"
         id="feBlend82" /><feComposite
         in="result7"
         operator="in"
         in2="SourceAlpha"
         result="result91"
         id="feComposite82" /><feBlend
         result="result9"
         mode="lighten"
         in="result6"
         in2="result91"
         id="feBlend83" /><feComposite
         in="result11"
         in2="result9"
         id="feComposite83" /></filter><linearGradient
       xlink:href="#linearGradient18"
       id="linearGradient14"
       x1="60.086647"
       y1="13.42156"
       x2="60.086647"
       y2="110.45673"
       gradientUnits="userSpaceOnUse" /><linearGradient
       xlink:href="#linearGradient26"
       id="linearGradient25"
       x1="60.086647"
       y1="13.42156"
       x2="60.086647"
       y2="110.45673"
       gradientUnits="userSpaceOnUse" /><linearGradient
       xlink:href="#linearGradient18"
       id="linearGradient28"
       x1="60.0746"
       y1="41.298218"
       x2="60.0746"
       y2="130.98129"
       gradientUnits="userSpaceOnUse" /><linearGradient
       xlink:href="#linearGradient18"
       id="linearGradient30"
       x1="60.282478"
       y1="84.266266"
       x2="60.282478"
       y2="138.39008"
       gradientUnits="userSpaceOnUse" /><linearGradient
       xlink:href="#linearGradient35"
       id="linearGradient5"
       x1="60.0746"
       y1="41.798286"
       x2="60.0746"
       y2="130.48123"
       gradientUnits="userSpaceOnUse" /><linearGradient
       xlink:href="#linearGradient37"
       id="linearGradient7"
       x1="60.282036"
       y1="84.766769"
       x2="60.282036"
       y2="137.88956"
       gradientUnits="userSpaceOnUse" /><filter
       style="color-interpolation-filters:sRGB"
       id="filter50"
       x="-0.064356269"
       y="-0.10716595"
       width="1.1596396"
       height="1.2658059"><feFlood
         result="flood"
         in="SourceGraphic"
         flood-opacity="0.505882"
         flood-color="rgb(0,0,0)"
         id="feFlood49" /><feGaussianBlur
         result="blur"
         in="SourceGraphic"
         stdDeviation="1.500000"
         id="feGaussianBlur49" /><feOffset
         result="offset"
         in="blur"
         dx="3.000000"
         dy="3.000000"
         id="feOffset49" /><feComposite
         result="comp1"
         operator="in"
         in="flood"
         in2="offset"
         id="feComposite49" /><feComposite
         result="comp2"
         operator="over"
         in="SourceGraphic"
         in2="comp1"
         id="feComposite50" /></filter></defs><g
     id="AdventureTextLimitBreak"
     style="display:inline"
     transform="translate(24.645001,-12.781691)"><path
       id="ActiveMB"
       style="display:inline;fill:url(#linearGradient4);fill-opacity:1;stroke:#000000;stroke-width:4.7469;stroke-dasharray:none;filter:url(#filter83)"
       d="M 17.181212,40.873474 C 9.8655278,40.873473 3.97595,47.666766 3.97595,56.105192 V 113.0356 c 0,8.43843 5.8895778,15.23182 13.205262,15.23182 h 0.330675 l 7.490176,13.03015 c 0,0 0.224405,0.38265 1.337041,1.73584 1.192016,1.44973 11.886888,2.25218 11.886888,2.25218 h 1.626553 l 7.757708,10.1351 c 0,0 0.24921,0.38988 1.222448,0.34564 0.97324,-0.0443 1.437791,-0.33178 1.437791,-0.33178 0,0 0.430594,-0.16166 0.508683,-0.97324 0.09554,-0.993 0,-13.91297 0,-13.91297 0,0 -0.169809,-0.80096 -2.654304,-3.00822 -2.110645,-1.87513 -3.539032,-1.94648 -3.539032,-1.94648 0,0 -2.698532,-0.35384 -3.9372,-0.48655 -1.238667,-0.13272 -1.202795,-1.58317 -1.202795,-1.58317 l -0.09533,-1.27898 c 0,0 -0.07469,-0.59671 0.02113,-1.21018 0.05456,-0.34928 -0.0968,-0.3272 1.011927,-0.93435 0.941793,-0.51573 1.427649,-1.00148 2.331706,-1.83291 l 62.878693,-6e-5 c 7.31567,-1e-5 13.20513,-6.79339 13.20513,-15.23182 V 56.105212 c 0,-8.438426 -5.88946,-15.231716 -13.20513,-15.231718 z" /><path
       id="RadioMB"
       style="display:inline;fill:#ffffff;fill-opacity:1;stroke:#000000;stroke-width:1.05833;stroke-linecap:butt;stroke-linejoin:round;stroke-dasharray:none;stroke-opacity:1;paint-order:markers stroke fill;filter:url(#filter148)"
       d="m 119.67437,145.13313 2.99362,4.71237 c 0,0 -0.35053,0.67809 -1.2392,1.53169 -0.88867,0.85359 -1.94149,1.14618 -1.94149,1.14618 0,0 0.79542,1.98785 0.95912,2.70113 0.066,0.28759 -0.003,0.55969 -0.10904,0.78238 -12.93727,-0.016 -48.452848,-0.0109 -48.452848,-0.0109 l -2.61277,1.19062 -2.76158,-0.99218 1.80247,3.29075 -6.58771,-2.44636 2.43241,3.96668 0.0233,4.7563 -2.43241,3.97547 7.31997,-3.08664 -2.66599,4.09226 2.96985,-1.14566 2.61948,1.21594 h 53.014328 l 2.94659,-1.19269 2.68924,1.19269 -2.45514,-4.13928 6.96908,2.96984 -2.94659,-4.37286 v -3.88245 l 3.10989,-4.51342 -6.72104,2.59468 1.84743,-3.41426 -2.52594,1.09915 c 0,0 -2.44301,-1.00047 -2.88716,-1.12189 l -1.77974,-2.59726 2.56108,-3.88193 c 0,0 -0.0818,-0.10573 -0.65474,-0.28112 -0.57296,-0.1754 -0.79516,-0.3623 -2.10478,-1.18081 -1.30962,-0.81851 -3.37964,-2.95847 -3.37964,-2.95847 z" /><g
       id="Label-Liskomato"
       transform="translate(55.597202,145.07066)"><path
         d="m 20.189278,19.71348 h -1.817513 v -4.199471 c 0,-0.654756 -0.474134,-1.151468 -1.117601,-1.151468 -0.643467,0 -1.117601,0.496712 -1.117601,1.151468 v 5.147738 c 0,0.654757 0.485423,1.151468 1.106312,1.151468 h 2.946403 c 0.643468,0 1.117601,-0.428978 1.117601,-1.049867 0,-0.62089 -0.474133,-1.049868 -1.117601,-1.049868 z m 2.720631,-4.041427 c 0.688623,0 1.219202,-0.530578 1.219202,-1.219201 0,-0.688623 -0.530579,-1.219201 -1.219202,-1.219201 -0.688623,0 -1.219201,0.530578 -1.219201,1.219201 0,0.688623 0.530578,1.219201 1.219201,1.219201 z m -1.095023,5.012272 c 0,0.654756 0.462845,1.12889 1.095023,1.12889 0.632179,0 1.095024,-0.474134 1.095024,-1.12889 V 17.2525 c 0,-0.654757 -0.462845,-1.128891 -1.095024,-1.128891 -0.632178,0 -1.095023,0.474134 -1.095023,1.128891 z m 5.136458,-3.002847 c 0,-0.07902 0.04516,-0.2032 0.372534,-0.2032 0.259645,0 0.541867,0.05644 1.072445,0.361244 0.1016,0.05645 0.203201,0.1016 0.372534,0.1016 0.417689,0 0.767645,-0.349955 0.767645,-0.767645 0,-0.3048 -0.180622,-0.530578 -0.372533,-0.654756 -0.451556,-0.293511 -1.162757,-0.485423 -1.907825,-0.485423 -0.993423,0 -2.348091,0.406401 -2.348091,1.828802 0,2.020713 2.754492,1.761069 2.754492,2.280358 0,0.1016 -0.1016,0.270934 -0.485423,0.270934 -0.428978,0 -0.982134,-0.214489 -1.456268,-0.474134 -0.135467,-0.07902 -0.270934,-0.1016 -0.4064,-0.1016 -0.395112,0 -0.778935,0.372533 -0.778935,0.812801 0,0.259644 0.135467,0.508 0.338667,0.654756 0.270934,0.2032 1.196624,0.598311 2.325514,0.598311 1.546579,0 2.551291,-0.733778 2.551291,-1.919113 0,-1.986846 -2.799647,-1.659468 -2.799647,-2.302935 z m 4.391374,-3.883382 c -0.632178,0 -1.095023,0.474134 -1.095023,1.12889 v 5.757339 c 0,0.654756 0.462845,1.12889 1.095023,1.12889 0.632179,0 1.095024,-0.474134 1.095024,-1.12889 v -0.891823 h 0.293511 c 0.440267,0 0.519289,0.214489 0.688623,0.643467 l 0.225778,0.564445 c 0.169334,0.428979 0.462845,0.812801 1.072446,0.812801 0.903112,0 1.241779,-0.767645 1.016001,-1.43369 l -0.21449,-0.632179 c -0.191911,-0.575733 -0.451556,-0.824089 -0.891823,-1.038578 0.361245,-0.169334 0.677334,-0.474134 0.778934,-0.801512 l 0.112889,-0.372534 c 0.180623,-0.587023 -0.1016,-1.411113 -1.061156,-1.411113 -0.417689,0 -0.869246,0.191912 -1.038579,0.767646 l -0.124178,0.417689 c -0.112889,0.372534 -0.259645,0.564445 -0.564445,0.564445 h -0.293511 v -2.946403 c 0,-0.654756 -0.462845,-1.12889 -1.095024,-1.12889 z m 7.879658,8.10543 c 1.794935,0 3.217337,-1.207912 3.217337,-2.935114 0,-1.727201 -1.422402,-2.935114 -3.217337,-2.935114 -1.794935,0 -3.217336,1.207913 -3.217336,2.935114 0,1.727202 1.422401,2.935114 3.217336,2.935114 z m -1.004712,-2.935114 c 0,-0.587022 0.349956,-1.083734 1.004712,-1.083734 0.654756,0 1.004712,0.496712 1.004712,1.083734 0,0.587023 -0.349956,1.083735 -1.004712,1.083735 -0.654756,0 -1.004712,-0.496712 -1.004712,-1.083735 z m 11.198581,-2.935114 c -0.677334,0 -1.343379,0.248356 -1.682046,0.609601 -0.282223,-0.395112 -0.733779,-0.609601 -1.253068,-0.609601 -0.654756,0 -1.286935,0.349956 -1.512713,0.666045 h -0.06773 v -0.01129 C 44.787799,16.371964 44.47171,16.11232 44.008865,16.11232 c -0.666045,0 -1.095024,0.519289 -1.095024,1.174045 v 3.397959 c 0,0.654756 0.462845,1.12889 1.095024,1.12889 0.632178,0 1.095023,-0.474134 1.095023,-1.12889 v -2.325513 c 0,-0.270934 0.191911,-0.51929 0.530578,-0.51929 0.327379,0 0.51929,0.237067 0.51929,0.51929 v 2.325513 c 0,0.654756 0.462845,1.12889 1.095023,1.12889 0.632179,0 1.095023,-0.474134 1.095023,-1.12889 v -2.325513 c 0,-0.282223 0.191912,-0.51929 0.530579,-0.51929 0.327378,0 0.519289,0.237067 0.519289,0.51929 v 2.325513 c 0,0.654756 0.462845,1.12889 1.095024,1.12889 0.632178,0 1.095023,-0.474134 1.095023,-1.12889 v -2.223913 c 0,-1.422402 -0.790223,-2.427114 -2.167469,-2.427114 z m 5.192889,5.870228 c 0.903112,0 1.546579,-0.474133 1.715913,-0.880534 h 0.1016 v 0.01129 c 0,0.462845 0.395112,0.778934 0.92569,0.778934 0.688623,0 1.095023,-0.474134 1.095023,-1.12889 V 18.58459 c 0,-1.580446 -1.354668,-2.551292 -3.070581,-2.551292 -1.761068,0 -3.318936,1.02729 -3.318936,3.014137 0,1.715913 1.162756,2.856091 2.551291,2.856091 z m -0.338667,-2.901247 c 0,-0.666045 0.361245,-1.162757 1.038579,-1.162757 0.530578,0 0.970845,0.293512 0.970845,0.959557 v 0.372534 c 0,0.666045 -0.530578,0.948267 -1.004712,0.948267 -0.6096,0 -1.004712,-0.417689 -1.004712,-1.117601 z m 5.429964,-3.635026 v 0.756356 h -0.01129 c -0.62089,0 -1.016001,0.406401 -1.016001,0.982135 0,0.575734 0.395111,0.982134 1.016001,0.982134 h 0.01129 v 1.456268 c 0,1.535291 0.722489,2.269069 2.269069,2.269069 h 0.361244 c 0.62089,0 1.061157,-0.338667 1.061157,-0.982134 0,-0.643467 -0.440267,-0.982134 -1.061157,-0.982134 H 62.2743 c -0.259645,0 -0.383823,-0.158045 -0.383823,-0.41769 v -1.343379 h 0.440267 c 0.62089,0 1.061157,-0.4064 1.061157,-0.982134 0,-0.575734 -0.440267,-0.982135 -1.061157,-0.982135 h -0.440267 v -0.756356 c 0,-0.654756 -0.451556,-1.140179 -1.095023,-1.140179 -0.643467,0 -1.095023,0.485423 -1.095023,1.140179 z m 7.123302,6.536273 c 1.794935,0 3.217336,-1.207912 3.217336,-2.935114 0,-1.727201 -1.422401,-2.935114 -3.217336,-2.935114 -1.794936,0 -3.217337,1.207913 -3.217337,2.935114 0,1.727202 1.422401,2.935114 3.217337,2.935114 z m -1.004712,-2.935114 c 0,-0.587022 0.349955,-1.083734 1.004712,-1.083734 0.654756,0 1.004712,0.496712 1.004712,1.083734 0,0.587023 -0.349956,1.083735 -1.004712,1.083735 -0.654757,0 -1.004712,-0.496712 -1.004712,-1.083735 z"
         id="path5"
         style="font-weight:900;font-size:11.2889px;font-family:'FONTSPRING DEMO - Torus Pro Heavy';-inkscape-font-specification:'FONTSPRING DEMO - Torus Pro Heavy,  Heavy';display:inline;stroke-linejoin:round;stroke-dasharray:none;filter:url(#filter126)"
         aria-label="Liskomato" /><use
         x="0"
         y="0"
         xlink:href="#path5"
         id="use13"
         style="display:none;fill:none;fill-opacity:1;stroke:url(#linearGradient15);stroke-width:2.06375;stroke-dasharray:none;stroke-opacity:1" /><use
         x="0"
         y="0"
         xlink:href="#path5"
         id="use11"
         style="display:inline;fill:url(#linearGradient12);fill-opacity:1;stroke:#1f5b5e;stroke-width:0.264583;stroke-dasharray:none;stroke-opacity:1" /></g><g
       id="Label-AdventureTextLimitBreak"
       style="font-weight:900;font-size:19.7556px;font-family:'FONTSPRING DEMO - Torus Pro Heavy';-inkscape-font-specification:'FONTSPRING DEMO - Torus Pro Heavy,  Heavy';text-align:center;text-anchor:middle;stroke-width:1.00013;paint-order:markers stroke fill;filter:url(#filter50)"
       aria-label="Adventure&#10;Text Limit&#10;Break"
       transform="translate(1.0810311,-0.94484502)"><g
         id="Label-Adventure"><path
           d="M 24.050262,66.147087 19.842319,57.079266 C 19.38794,56.111242 18.71625,55.676619 17.90627,55.676619 c -0.809979,0 -1.48167,0.434623 -1.936048,1.402647 l -4.207943,9.067821 c -0.572912,1.224847 0.158045,2.726273 1.79776,2.726273 0.612423,0 1.402647,-0.217312 1.83727,-1.323626 l 0.217312,-0.533401 h 4.583299 l 0.217312,0.533401 c 0.434623,1.106314 1.224847,1.323626 1.83727,1.323626 1.639715,0 2.370672,-1.501426 1.79776,-2.726273 z m -7.250305,-2.113849 1.106313,-2.765784 1.106314,2.765784 z m 15.073515,-0.49389 v 0.651934 c 0,1.086558 -0.770469,1.600204 -1.698982,1.600204 -1.185336,0 -1.817515,-0.869246 -1.817515,-1.955804 0,-1.244603 0.691446,-1.955805 1.738493,-1.955805 0.849491,0 1.778004,0.49389 1.778004,1.659471 z m -7.388595,0.217311 c 0,3.437475 2.627495,5.274745 5.768636,5.274745 2.884317,0 5.413034,-1.936048 5.413034,-5.195722 v -7.013238 c 0,-1.145825 -0.80998,-1.97556 -1.916293,-1.97556 -1.106314,0 -1.916293,0.829735 -1.916293,1.97556 v 2.923828 h -0.118534 c -0.750713,-0.553156 -1.461914,-0.98778 -2.706517,-0.98778 -2.489206,0 -4.524033,1.97556 -4.524033,4.998167 z m 20.170464,-4.840122 c -0.790224,0 -1.521181,0.355601 -1.817515,1.145825 l -1.363136,3.575764 -1.363137,-3.575764 c -0.296334,-0.790224 -1.027291,-1.145825 -1.817515,-1.145825 -1.738493,0 -2.212627,1.679226 -1.65947,2.765784 l 3.062118,6.084725 c 0.355601,0.711202 1.007535,1.16558 1.778004,1.16558 0.770468,0 1.422403,-0.454378 1.778004,-1.16558 l 3.062118,-6.084725 c 0.553157,-1.086558 0.07902,-2.765784 -1.659471,-2.765784 z m 9.265381,3.891853 H 50.74007 c 0.237067,-0.809979 0.770468,-1.422403 1.600204,-1.422403 1.126069,0 1.501425,0.908758 1.580448,1.422403 z m -7.072505,1.066803 c 0,3.022607 2.331161,5.156211 5.709368,5.156211 1.442159,0 2.706517,-0.3556 3.536253,-0.809979 0.49389,-0.276579 0.790224,-0.730957 0.790224,-1.244603 0,-0.49389 -0.375357,-1.382892 -1.343381,-1.382892 -0.197556,0 -0.414868,0.03951 -0.651935,0.118534 -0.572912,0.1778 -1.224847,0.375356 -2.034827,0.375356 -1.066802,0 -1.758248,-0.355601 -2.054582,-1.106314 h 4.899389 c 1.303869,0 1.817515,-1.066802 1.817515,-1.916293 0,-2.667006 -2.46945,-4.306721 -5.136456,-4.306721 -2.844807,0 -5.531568,2.094094 -5.531568,5.116701 z m 18.13565,-5.116701 c -1.224847,0 -2.46945,0.474135 -3.042362,1.165581 h -0.118534 v -0.01976 c -0.296334,-0.750713 -0.968024,-0.98778 -1.540936,-0.98778 -1.12607,0 -1.936049,0.849491 -1.936049,1.995316 v 5.966191 c 0,1.145825 0.790224,1.995316 1.916293,1.995316 1.126069,0 1.916293,-0.849491 1.916293,-1.995316 v -3.77332 c 0,-0.730957 0.533401,-1.185336 1.363137,-1.185336 0.809979,0 1.264358,0.454379 1.264358,1.185336 v 3.77332 c 0,1.145825 0.790224,1.995316 1.916293,1.995316 1.126069,0 1.916293,-0.849491 1.916293,-1.995316 v -3.911609 c 0,-2.923829 -1.639714,-4.207943 -3.654786,-4.207943 z m 5.847663,-1.16558 v 1.323625 h -0.01976 c -1.086558,0 -1.778004,0.711202 -1.778004,1.718737 0,1.007536 0.691446,1.718738 1.778004,1.718738 h 0.01976 v 2.548472 c 0,2.686762 1.264358,3.970876 3.970876,3.970876 h 0.632179 c 1.086558,0 1.857026,-0.592668 1.857026,-1.718738 0,-1.126069 -0.770468,-1.718737 -1.857026,-1.718737 h -0.09878 c -0.454379,0 -0.671691,-0.276578 -0.671691,-0.730957 v -2.350916 h 0.770469 c 1.086558,0 1.857026,-0.711202 1.857026,-1.718738 0,-1.007535 -0.770468,-1.718737 -1.857026,-1.718737 h -0.770469 v -1.323625 c 0,-1.145825 -0.790224,-1.995316 -1.916293,-1.995316 -1.126069,0 -1.916293,0.849491 -1.916293,1.995316 z m 15.764976,1.323625 c -1.106314,0 -1.916294,0.829735 -1.916294,1.97556 v 3.77332 c 0,0.67169 -0.533401,1.16558 -1.363136,1.16558 -0.829735,0 -1.264358,-0.454379 -1.264358,-1.205091 v -3.733809 c 0,-1.145825 -0.80998,-1.97556 -1.916294,-1.97556 -1.106313,0 -1.916293,0.829735 -1.916293,1.97556 v 3.872098 c 0,2.686761 1.422403,4.227698 3.832587,4.227698 1.461914,0 2.548472,-0.612423 2.904073,-1.224847 h 0.118533 v 0.01976 c 0.177801,0.513645 0.691446,1.086558 1.600204,1.086558 1.027291,0 1.837271,-0.750713 1.837271,-1.896538 v -6.084725 c 0,-1.145825 -0.80998,-1.97556 -1.916293,-1.97556 z m 9.818528,-0.1778 c -0.118534,-0.03951 -0.355601,-0.05927 -0.553157,-0.05927 -1.086558,0 -1.936049,0.513646 -2.64725,1.382892 h -0.118534 v -0.01976 c -0.316089,-0.790224 -0.889002,-1.126069 -1.619959,-1.126069 -1.106314,0 -1.936049,0.849491 -1.936049,1.995316 V 66.8978 c 0,1.145824 0.80998,1.97556 1.916293,1.97556 1.106314,0 1.916294,-0.829736 1.916294,-1.97556 v -3.121385 c 0,-0.829735 0.296334,-1.363137 1.264358,-1.363137 0.335845,0 0.632179,0.09878 0.790224,0.13829 0.256823,0.05927 0.395112,0.05927 0.513646,0.05927 1.066802,0 1.955804,-0.889002 1.955804,-1.97556 0,-0.889002 -0.572912,-1.639714 -1.48167,-1.896537 z m 8.593676,4.069653 h -3.18065 c 0.23706,-0.809979 0.77046,-1.422403 1.6002,-1.422403 1.12607,0 1.50143,0.908758 1.58045,1.422403 z m -7.072507,1.066803 c 0,3.022607 2.331157,5.156211 5.709367,5.156211 1.44216,0 2.70652,-0.3556 3.53625,-0.809979 0.49389,-0.276579 0.79023,-0.730957 0.79023,-1.244603 0,-0.49389 -0.37536,-1.382892 -1.34338,-1.382892 -0.19756,0 -0.41487,0.03951 -0.65194,0.118534 -0.57291,0.1778 -1.22485,0.375356 -2.03482,0.375356 -1.06681,0 -1.75825,-0.355601 -2.05459,-1.106314 h 4.89939 c 1.30387,0 1.81752,-1.066802 1.81752,-1.916293 0,-2.667006 -2.46945,-4.306721 -5.13646,-4.306721 -2.84481,0 -5.531567,2.094094 -5.531567,5.116701 z"
           id="path6"
           style="font-weight:900;font-size:19.7556px;font-family:'FONTSPRING DEMO - Torus Pro Heavy';-inkscape-font-specification:'FONTSPRING DEMO - Torus Pro Heavy,  Heavy';text-align:center;text-anchor:middle;display:inline;stroke-linejoin:round;paint-order:normal" /><use
           x="0"
           y="0"
           xlink:href="#path6"
           id="use10"
           style="font-weight:900;font-size:19.7556px;font-family:'FONTSPRING DEMO - Torus Pro Heavy';-inkscape-font-specification:'FONTSPRING DEMO - Torus Pro Heavy,  Heavy';text-align:center;text-anchor:middle;display:inline;fill:none;stroke:url(#linearGradient25);stroke-width:5.29167;stroke-dasharray:none;paint-order:normal" /><use
           x="0"
           y="0"
           xlink:href="#path6"
           id="use9"
           style="font-weight:900;font-size:19.7556px;font-family:'FONTSPRING DEMO - Torus Pro Heavy';-inkscape-font-specification:'FONTSPRING DEMO - Torus Pro Heavy,  Heavy';text-align:center;text-anchor:middle;display:inline;fill:url(#linearGradient14);fill-opacity:1;stroke:#604d00;stroke-width:0.79375;stroke-dasharray:none;stroke-opacity:1;paint-order:markers stroke fill" /></g><g
         id="Label-TextLimit"
         transform="translate(0,-2.6458335)"><path
           d="m 24.800952,80.529164 h -7.112016 c -1.12607,0 -1.955805,0.809979 -1.955805,1.83727 0,1.027292 0.829735,1.837271 1.955805,1.837271 h 1.600203 v 7.349083 c 0,1.145825 0.829735,2.015072 1.955805,2.015072 1.126069,0 1.955804,-0.869247 1.955804,-2.015072 v -7.349083 h 1.600204 c 1.126069,0 1.955804,-0.809979 1.955804,-1.837271 0,-1.027291 -0.829735,-1.83727 -1.955804,-1.83727 z m 7.803467,6.973726 h -3.180651 c 0.237067,-0.809979 0.770468,-1.422403 1.600203,-1.422403 1.12607,0 1.501426,0.908758 1.580448,1.422403 z m -7.072504,1.066803 c 0,3.022607 2.33116,5.156211 5.709368,5.156211 1.442159,0 2.706517,-0.3556 3.536252,-0.809979 0.49389,-0.276579 0.790224,-0.730957 0.790224,-1.244603 0,-0.49389 -0.375356,-1.382892 -1.34338,-1.382892 -0.197556,0 -0.414868,0.03951 -0.651935,0.118534 -0.572913,0.1778 -1.224847,0.375356 -2.034827,0.375356 -1.066802,0 -1.758248,-0.355601 -2.054582,-1.106314 h 4.899388 c 1.30387,0 1.817516,-1.066802 1.817516,-1.916293 0,-2.667006 -2.46945,-4.306721 -5.136456,-4.306721 -2.844807,0 -5.531568,2.094094 -5.531568,5.116701 z m 20.051942,1.718737 -2.094093,-1.79776 2.015071,-1.738492 c 0.355601,-0.31609 0.553157,-0.790224 0.553157,-1.30387 0,-1.007536 -0.829736,-1.837271 -1.837271,-1.837271 -0.513646,0 -0.968025,0.197556 -1.30387,0.553157 l -1.422403,1.501426 -1.422403,-1.501426 c -0.31609,-0.335845 -0.790224,-0.553157 -1.30387,-0.553157 -1.007535,0 -1.837271,0.829735 -1.837271,1.837271 0,0.49389 0.217312,1.027291 0.592668,1.343381 l 1.97556,1.698981 -2.173116,1.876782 c -0.335845,0.296334 -0.572912,0.790224 -0.572912,1.343381 0,1.007536 0.849491,1.857027 1.876782,1.857027 0.553157,0 1.027291,-0.256823 1.363136,-0.612424 l 1.501426,-1.600204 1.560692,1.659471 c 0.256823,0.276578 0.750713,0.553157 1.323626,0.553157 1.007535,0 1.857026,-0.849491 1.857026,-1.876782 0,-0.63218 -0.335845,-1.12607 -0.651935,-1.402648 z m 2.923824,-8.001018 v 1.323625 h -0.01975 c -1.086558,0 -1.778004,0.711202 -1.778004,1.718737 0,1.007536 0.691446,1.718738 1.778004,1.718738 h 0.01975 v 2.548472 c 0,2.686762 1.264359,3.970876 3.970876,3.970876 h 0.632179 c 1.086558,0 1.857027,-0.592668 1.857027,-1.718738 0,-1.126069 -0.770469,-1.718737 -1.857027,-1.718737 h -0.09878 c -0.454379,0 -0.67169,-0.276578 -0.67169,-0.730957 v -2.350916 h 0.770468 c 1.086558,0 1.857027,-0.711202 1.857027,-1.718738 0,-1.007535 -0.770469,-1.718737 -1.857027,-1.718737 h -0.770468 v -1.323625 c 0,-1.145825 -0.790224,-1.995316 -1.916293,-1.995316 -1.12607,0 -1.916294,0.849491 -1.916294,1.995316 z m 18.985138,7.605906 h -3.180652 v -7.349083 c 0,-1.145825 -0.829735,-2.015071 -1.955804,-2.015071 -1.126069,0 -1.955805,0.869246 -1.955805,2.015071 v 9.008553 c 0,1.145825 0.849491,2.015072 1.936049,2.015072 h 5.156212 c 1.126069,0 1.955804,-0.750713 1.955804,-1.837271 0,-1.086558 -0.829735,-1.837271 -1.955804,-1.837271 z m 4.761111,-7.072505 c 1.205092,0 2.133605,-0.928513 2.133605,-2.133605 0,-1.205091 -0.928513,-2.133604 -2.133605,-2.133604 -1.205091,0 -2.133605,0.928513 -2.133605,2.133604 0,1.205092 0.928514,2.133605 2.133605,2.133605 z M 70.337637,91.5923 c 0,1.145824 0.80998,1.97556 1.916293,1.97556 1.106314,0 1.916293,-0.829736 1.916293,-1.97556 v -6.005703 c 0,-1.145825 -0.809979,-1.97556 -1.916293,-1.97556 -1.106313,0 -1.916293,0.829735 -1.916293,1.97556 z M 86.63602,83.452992 c -1.185336,0 -2.350916,0.434624 -2.943584,1.066803 -0.49389,-0.691446 -1.284114,-1.066803 -2.192872,-1.066803 -1.145825,0 -2.252138,0.612424 -2.64725,1.165581 H 78.73378 v -0.01976 c -0.197556,-0.553157 -0.750713,-1.007535 -1.560692,-1.007535 -1.165581,0 -1.916294,0.908757 -1.916294,2.054582 v 5.94644 c 0,1.145824 0.80998,1.97556 1.916294,1.97556 1.106313,0 1.916293,-0.829736 1.916293,-1.97556 v -4.069654 c 0,-0.474134 0.335845,-0.908758 0.928513,-0.908758 0.572912,0 0.908758,0.414868 0.908758,0.908758 V 91.5923 c 0,1.145824 0.809979,1.97556 1.916293,1.97556 1.106313,0 1.916293,-0.829736 1.916293,-1.97556 v -4.069654 c 0,-0.49389 0.335845,-0.908758 0.928513,-0.908758 0.572912,0 0.908758,0.414868 0.908758,0.908758 V 91.5923 c 0,1.145824 0.809979,1.97556 1.916293,1.97556 1.106313,0 1.916293,-0.829736 1.916293,-1.97556 v -3.891854 c 0,-2.489205 -1.382892,-4.247454 -3.793075,-4.247454 z m 6.795923,-0.632179 c 1.205092,0 2.133605,-0.928513 2.133605,-2.133605 0,-1.205091 -0.928513,-2.133604 -2.133605,-2.133604 -1.205092,0 -2.133605,0.928513 -2.133605,2.133604 0,1.205092 0.928513,2.133605 2.133605,2.133605 z M 91.51565,91.5923 c 0,1.145824 0.809979,1.97556 1.916293,1.97556 1.106314,0 1.916293,-0.829736 1.916293,-1.97556 v -6.005703 c 0,-1.145825 -0.809979,-1.97556 -1.916293,-1.97556 -1.106314,0 -1.916293,0.829735 -1.916293,1.97556 z m 6.440338,-9.304888 v 1.323625 h -0.01976 c -1.086558,0 -1.778004,0.711202 -1.778004,1.718737 0,1.007536 0.691446,1.718738 1.778004,1.718738 h 0.01976 v 2.548472 c 0,2.686762 1.264359,3.970876 3.970872,3.970876 h 0.63218 c 1.08656,0 1.85703,-0.592668 1.85703,-1.718738 0,-1.126069 -0.77047,-1.718737 -1.85703,-1.718737 h -0.0988 c -0.45438,0 -0.6717,-0.276578 -0.6717,-0.730957 v -2.350916 h 0.77047 c 1.08656,0 1.85703,-0.711202 1.85703,-1.718738 0,-1.007535 -0.77047,-1.718737 -1.85703,-1.718737 h -0.77047 v -1.323625 c 0,-1.145825 -0.79022,-1.995316 -1.916288,-1.995316 -1.12607,0 -1.916294,0.849491 -1.916294,1.995316 z"
           id="path7"
           style="font-weight:900;font-size:19.7556px;font-family:'FONTSPRING DEMO - Torus Pro Heavy';-inkscape-font-specification:'FONTSPRING DEMO - Torus Pro Heavy,  Heavy';text-align:center;text-anchor:middle;display:inline;stroke-linejoin:round;paint-order:normal" /><use
           x="0"
           y="0"
           xlink:href="#path7"
           id="use2"
           style="font-weight:900;font-size:19.7556px;font-family:'FONTSPRING DEMO - Torus Pro Heavy';-inkscape-font-specification:'FONTSPRING DEMO - Torus Pro Heavy,  Heavy';text-align:center;text-anchor:middle;display:inline;fill:none;stroke:url(#linearGradient5);stroke-width:5.29167;stroke-dasharray:none;paint-order:markers stroke fill" /><use
           x="0"
           y="0"
           xlink:href="#path7"
           id="use26"
           style="font-weight:900;font-size:19.7556px;font-family:'FONTSPRING DEMO - Torus Pro Heavy';-inkscape-font-specification:'FONTSPRING DEMO - Torus Pro Heavy,  Heavy';text-align:center;text-anchor:middle;display:inline;fill:url(#linearGradient28);stroke:#604d00;stroke-width:0.79375;stroke-dasharray:none;stroke-opacity:1;paint-order:normal" /></g><g
         id="Label-Break"
         transform="translate(0,-5.291667)"><path
           d="m 38.778072,110.34036 h -1.145825 v -1.83727 h 1.145825 c 0.592668,0 0.849491,0.37536 0.849491,0.90876 0,0.5334 -0.256823,0.92851 -0.849491,0.92851 z m -5.057434,5.90693 c 0,1.14582 0.829736,2.01507 1.955805,2.01507 h 4.049898 c 3.14114,0 4.504277,-2.31141 4.504277,-4.24745 0,-1.71874 -1.027292,-2.52872 -1.837271,-3.02261 0.474134,-0.41487 1.027291,-1.04705 1.027291,-2.39043 0,-2.25214 -1.402648,-3.37821 -4.148676,-3.37821 h -3.595519 c -1.126069,0 -1.955805,0.86925 -1.955805,2.01507 z m 3.911609,-1.26436 v -1.9558 h 1.639715 c 0.730957,0 1.007536,0.3556 1.007536,0.98778 0,0.63217 -0.276579,0.96802 -1.007536,0.96802 z m 14.461086,-6.85519 c -0.118533,-0.0395 -0.355601,-0.0593 -0.553157,-0.0593 -1.086558,0 -1.936048,0.51365 -2.64725,1.38289 h -0.118534 v -0.0197 c -0.316089,-0.79023 -0.889002,-1.12607 -1.619959,-1.12607 -1.106313,0 -1.936049,0.84949 -1.936049,1.99531 v 5.98595 c 0,1.14582 0.80998,1.97556 1.916294,1.97556 1.106313,0 1.916293,-0.82974 1.916293,-1.97556 v -3.12139 c 0,-0.82973 0.296334,-1.36313 1.264358,-1.36313 0.335845,0 0.632179,0.0988 0.790224,0.13829 0.256823,0.0593 0.395112,0.0593 0.513646,0.0593 1.066802,0 1.955804,-0.889 1.955804,-1.97556 0,-0.889 -0.572912,-1.63971 -1.48167,-1.89653 z m 8.593676,4.06965 h -3.180652 c 0.237067,-0.80998 0.770469,-1.4224 1.600204,-1.4224 1.126069,0 1.501425,0.90875 1.580448,1.4224 z m -7.072505,1.0668 c 0,3.02261 2.331161,5.15621 5.709368,5.15621 1.442159,0 2.706518,-0.3556 3.536253,-0.80998 0.49389,-0.27657 0.790224,-0.73095 0.790224,-1.2446 0,-0.49389 -0.375357,-1.38289 -1.343381,-1.38289 -0.197556,0 -0.414868,0.0395 -0.651935,0.11853 -0.572912,0.1778 -1.224847,0.37536 -2.034827,0.37536 -1.066802,0 -1.758248,-0.3556 -2.054582,-1.10631 h 4.899389 c 1.303869,0 1.817515,-1.06681 1.817515,-1.9163 0,-2.667 -2.46945,-4.30672 -5.136456,-4.30672 -2.844806,0 -5.531568,2.0941 -5.531568,5.1167 z m 15.764978,5.15621 c 1.580448,0 2.706518,-0.82973 3.002852,-1.54093 h 0.1778 v 0.0198 c 0,0.80998 0.691446,1.36314 1.619959,1.36314 1.205092,0 1.916293,-0.82974 1.916293,-1.97556 v -3.67454 c 0,-2.76579 -2.370672,-4.46477 -5.373523,-4.46477 -3.081873,0 -5.808146,1.79776 -5.808146,5.27475 0,3.00285 2.034827,4.99816 4.464765,4.99816 z m -0.592668,-5.07718 c 0,-1.16559 0.63218,-2.03483 1.817516,-2.03483 0.928513,0 1.698981,0.51364 1.698981,1.67922 v 0.65194 c 0,1.16558 -0.928513,1.65947 -1.758248,1.65947 -1.066803,0 -1.758249,-0.73096 -1.758249,-1.9558 z m 10.253152,-9.10734 c -1.106313,0 -1.916293,0.82974 -1.916293,1.97556 v 10.07536 c 0,1.14582 0.80998,1.97556 1.916293,1.97556 1.106314,0 1.916293,-0.82974 1.916293,-1.97556 v -1.56069 h 0.513646 c 0.770468,0 0.908758,0.37535 1.205092,1.12607 l 0.395112,0.98778 c 0.296334,0.75071 0.809979,1.4224 1.876782,1.4224 1.580448,0 2.173116,-1.34338 1.778004,-2.50896 l -0.375357,-1.10632 c -0.335845,-1.00753 -0.790224,-1.44215 -1.560692,-1.81751 0.632179,-0.29633 1.185336,-0.82974 1.363136,-1.40265 l 0.197556,-0.65193 c 0.31609,-1.02729 -0.1778,-2.46945 -1.857026,-2.46945 -0.730957,0 -1.521181,0.33584 -1.817515,1.34338 l -0.217312,0.73096 c -0.197556,0.65193 -0.454379,0.98778 -0.98778,0.98778 h -0.513646 v -5.15622 c 0,-1.14582 -0.809979,-1.97556 -1.916293,-1.97556 z"
           id="path8"
           style="font-weight:900;font-size:19.7556px;font-family:'FONTSPRING DEMO - Torus Pro Heavy';-inkscape-font-specification:'FONTSPRING DEMO - Torus Pro Heavy,  Heavy';text-align:center;text-anchor:middle;display:inline;stroke-linejoin:round;paint-order:normal" /><use
           x="0"
           y="0"
           xlink:href="#path8"
           id="use5"
           style="font-weight:900;font-size:19.7556px;font-family:'FONTSPRING DEMO - Torus Pro Heavy';-inkscape-font-specification:'FONTSPRING DEMO - Torus Pro Heavy,  Heavy';text-align:center;text-anchor:middle;display:inline;stroke:url(#linearGradient7);stroke-width:5.29167;stroke-dasharray:none;paint-order:markers stroke fill" /><use
           x="0"
           y="0"
           xlink:href="#path8"
           id="use28"
           style="fill:url(#linearGradient30);stroke:#604d00;stroke-width:0.79375;stroke-dasharray:none;stroke-opacity:1" /></g></g></g><metadata
     id="metadata83"><rdf:RDF><cc:Work
         rdf:about=""><dc:title>Adventure Text Limit Break (Icon)</dc:title><dc:creator><cc:Agent><dc:title>0KepOnline</dc:title></cc:Agent></dc:creator></cc:Work></rdf:RDF></metadata></svg>
